<svg version="1.2" baseProfile="tiny-ps" xmlns="http://www.w3.org/2000/svg" viewBox="0 0 16 16" width="16" height="16">
	<title>About long</title>
	<style>
		tspan { white-space:pre }
		.shp0 { fill: #008ed6 } 
	</style>
	<g id="About long">
		<path id="Cup" class="shp0" d="M8.01 9.31C5.26 9.31 3.02 6.91 3.02 3.97L3.02 0.78C3.02 0.51 3.24 0.28 3.52 0.28L12.51 0.28C12.79 0.28 13.01 0.51 13.01 0.78L13.01 3.97C13.01 6.91 10.77 9.31 8.01 9.31ZM4.02 1.28L4.02 3.97C4.02 6.36 5.81 8.31 8.01 8.31C10.22 8.31 12.01 6.36 12.01 3.97L12.01 1.28L4.02 1.28ZM8.01 13.76C7.73 13.76 7.51 13.53 7.51 13.26L7.51 9.12C7.51 8.84 7.73 8.62 8.01 8.62C8.29 8.62 8.51 8.84 8.51 9.12L8.51 13.26C8.51 13.53 8.29 13.76 8.01 13.76ZM10.05 13.76L6.01 13.76C5.74 13.76 5.51 13.54 5.51 13.26C5.51 12.99 5.74 12.76 6.01 12.76L10.05 12.76C10.33 12.76 10.55 12.99 10.55 13.26C10.55 13.54 10.33 13.76 10.05 13.76ZM11.55 15.28L4.52 15.28C4.24 15.28 4.02 15.06 4.02 14.78C4.02 14.5 4.24 14.28 4.52 14.28L11.55 14.28C11.82 14.28 12.05 14.5 12.05 14.78C12.05 15.06 11.82 15.28 11.55 15.28ZM12.62 5.78C12.35 5.78 12.12 5.56 12.12 5.28C12.12 5.01 12.35 4.78 12.62 4.78C13.51 4.78 14.16 4.54 14.54 4.07C14.99 3.53 15.03 2.74 15.01 2.28L12.71 2.28C12.43 2.28 12.21 2.06 12.21 1.78C12.21 1.51 12.43 1.28 12.71 1.28L15.46 1.28C15.69 1.28 15.9 1.45 15.95 1.68C15.96 1.75 16.3 3.51 15.32 4.7C14.74 5.42 13.83 5.78 12.62 5.78ZM3.48 5.78C2.27 5.78 1.37 5.42 0.78 4.7C-0.19 3.51 0.14 1.75 0.16 1.68C0.2 1.45 0.41 1.28 0.65 1.28L3.4 1.28C3.67 1.28 3.9 1.51 3.9 1.78C3.9 2.06 3.67 2.28 3.4 2.28L1.09 2.28C1.07 2.74 1.11 3.53 1.56 4.07C1.95 4.54 2.59 4.78 3.48 4.78C3.76 4.78 3.98 5.01 3.98 5.28C3.98 5.56 3.76 5.78 3.48 5.78Z" />
	</g>
</svg>