<svg version="1.2" baseProfile="tiny-ps" xmlns="http://www.w3.org/2000/svg" viewBox="0 0 11 17" width="11" height="17">
	<title>About long</title>
	<style>
		tspan { white-space:pre }
		.shp0 { fill: #008ed6 } 
	</style>
	<g id="About long">
		<path id="Energy" class="shp0" d="M6.56 1.34L6.56 1.34M6.56 1.34L5.43 7.27L9.52 7.28L3.96 15.32L5.08 8.8L1 8.78L6.56 1.34M6.56 0.34C6.53 0.34 6.51 0.34 6.48 0.34C6.3 0.36 6.19 0.42 6.05 0.51C5.97 0.56 5.9 0.62 5.84 0.69C5.82 0.72 5.8 0.74 5.79 0.76L0.18 8.18C-0.04 8.48 -0.07 8.88 0.1 9.22C0.27 9.55 0.61 9.76 0.99 9.77L3.88 9.79L2.97 15.13C2.88 15.59 3.13 16.05 3.56 16.23C3.69 16.29 3.82 16.32 3.95 16.32C4.27 16.32 4.53 16.17 4.72 15.9L10.33 7.87C10.55 7.56 10.59 7.16 10.42 6.83C10.25 6.5 9.9 6.28 9.53 6.28L6.64 6.28L7.54 1.57C7.56 1.5 7.57 1.42 7.57 1.34C7.57 0.8 7.14 0.36 6.6 0.34C6.58 0.34 6.57 0.34 6.56 0.34L6.56 0.34Z" />
	</g>
</svg>