<svg version="1.2" baseProfile="tiny-ps" xmlns="http://www.w3.org/2000/svg" viewBox="0 0 32 22" width="32" height="22">
	<title>Contact us</title>
	<style>
		tspan { white-space:pre }
		.shp0 { fill: #008ed6 } 
	</style>
	<g id="Contact us">
		<path id="Envelope" class="shp0" d="M29.5 2.01C30.05 2.01 30 1.96 30 2.51L30 18.51C30 19.07 30.05 20.01 29.5 20.01L3.5 20.01C2.95 20.01 2 19.07 2 18.51L2 2.51C2 1.96 2.95 2.01 3.5 2.01L29 2.01M29.5 0.01L3.5 0.01C1.84 0.01 0 0.86 0 2.51L0 18.51C0 20.17 1.84 22.01 3.5 22.01L29.5 22.01C31.16 22.01 32 20.17 32 18.51L32 2.51C32 0.86 31.16 0.01 29.5 0.01L29.5 0.01ZM16 15.11C15.77 15.11 15.53 15.03 15.35 14.86L0.35 2.86C-0.07 2.5 -0.12 1.87 0.24 1.45C0.61 1.04 1.24 0.99 1.65 1.35L16 12.79L30.34 1.35C30.76 0.99 31.39 1.04 31.76 1.45C32.12 1.87 32.07 2.5 31.66 2.86L16.65 14.86C16.47 15.03 16.23 15.11 16 15.11Z" />
	</g>
</svg>