<svg version="1.2" baseProfile="tiny-ps" xmlns="http://www.w3.org/2000/svg" viewBox="0 0 32 32" width="32" height="32">
	<title>Features</title>
	<style>
		tspan { white-space:pre }
		.shp0 { fill: #008ed6 } 
	</style>
	<g id="Features">
		<g id="Feature 3">
			<path id="Like" class="shp0" d="M19.01 31.98C9.92 31.98 9.85 31.61 8.72 30.76C8.13 30.31 7 30 2.89 29.73C2.59 29.71 2.3 29.6 2.11 29.37C2.02 29.26 -0.03 26.26 -0.03 21.46C-0.03 16.73 1.44 14.57 1.5 14.47C1.69 14.18 2.01 14 2.35 14C5.73 14 10.41 9.69 13.56 2.16C14.11 0.86 14.22 0 16.22 0C17.36 0 18.63 0.81 19.26 1.86C20.55 3.99 19.9 8.58 19.29 11.03C21.35 11.01 25.09 10.99 26.86 10.99C29.33 10.99 30.97 12.46 31.02 14.61C31.03 15.32 30.94 16.23 30.74 16.7C31.28 17.24 31.98 18.06 32.01 19.12C32.05 20.48 31.16 21.51 30.59 22.11C30.72 22.5 30.98 23.03 30.96 23.65C30.89 25.19 29.7 26.19 28.96 26.71C29.02 27.13 29.07 27.92 28.94 28.54C28.4 31 24.8 31.98 19.01 31.98ZM3.42 27.7C7 28 8.92 28.4 9.93 29.16C10.71 29.75 10.59 29.98 19.01 29.98C21.58 29.98 26.6 29.88 26.98 28.11C27.14 27.41 26.39 26.72 26.39 26.71C26.19 26.21 26.41 25.62 26.91 25.41C26.92 25.4 28.91 24.69 28.96 23.57C28.99 22.86 28.5 22.43 28.49 22.41C28.2 21.96 28.3 21.34 28.74 21.03C28.75 21.03 30.04 20.24 30.01 19.17C29.99 18.32 28.87 17.73 28.83 17.71C28.58 17.56 28.4 17.32 28.35 17.03C28.29 16.75 28.35 16.45 28.53 16.22C28.53 16.22 29.04 15.42 29.02 14.66C28.98 13.04 27.24 12.99 26.86 12.99C24.34 12.99 17.86 13.01 17.86 13.01C17.51 13.01 17.21 12.85 17.02 12.57C16.83 12.29 16.82 11.94 16.93 11.62C17.91 8.81 18.45 4.4 17.55 2.89C17.28 2.44 17.22 2 16.22 2C16.08 2 15.75 2.11 15.41 2.93C12.06 10.92 7.07 15.55 2.98 15.97C2.63 16.77 1.97 18.44 1.97 21.46C1.97 24.54 2.95 26.93 3.42 27.7Z" />
		</g>
	</g>
</svg>