<svg version="1.2" baseProfile="tiny-ps" xmlns="http://www.w3.org/2000/svg" viewBox="0 0 10 17" width="10" height="17">
	<title>About long</title>
	<style>
		tspan { white-space:pre }
		.shp0 { fill: #008ed6 } 
	</style>
	<g id="About long">
		<path id="Mouse" class="shp0" d="M5.03 1.78C6.95 1.78 8.51 3.34 8.51 5.26L8.51 12.31C8.51 14.22 6.95 15.78 5.03 15.78C3.12 15.78 1.51 14.22 1.51 12.31L1.51 5.26C1.51 3.34 3.12 1.78 5.03 1.78M5.03 0.78C2.56 0.78 0.51 2.78 0.51 5.26L0.51 12.31C0.51 14.78 2.56 16.78 5.03 16.78C7.51 16.78 9.51 14.78 9.51 12.31L9.51 5.26C9.51 2.78 7.51 0.78 5.03 0.78L5.03 0.78ZM5.02 3.78C5.29 3.78 5.52 4 5.52 4.28L5.52 6.78C5.52 7.06 5.29 7.28 5.02 7.28C4.74 7.28 4.52 7.06 4.52 6.78L4.52 4.28C4.52 4 4.74 3.78 5.02 3.78Z" />
	</g>
</svg>