<svg version="1.2" baseProfile="tiny-ps" xmlns="http://www.w3.org/2000/svg" viewBox="0 0 18 32" width="18" height="32">
	<title>Features</title>
	<style>
		tspan { white-space:pre }
		.shp0 { fill: #008ed6 } 
	</style>
	<g id="Features">
		<g id="Feature 4">
			<path id="Phone" class="shp0" d="M15 2C15.55 2 16 2.45 16 3L16 29C16 29.55 15.55 30 15 30L2.99 30C2.44 30 1.99 29.55 1.99 29L1.99 3C1.99 2.45 2.44 2 2.99 2L15 2M15 0L2.99 0C1.34 0 -0.01 1.34 -0.01 3L-0.01 29C-0.01 30.66 1.34 32 2.99 32L15 32C16.66 32 18 30.66 18 29L18 3C18 1.34 16.66 0 15 0L15 0ZM7 27C7 28.1 7.9 28.99 9 28.99C10.1 28.99 11 28.1 11 27C11 25.9 10.1 25.01 9 25.01C7.9 25.01 7 25.9 7 27ZM7 3L11 3C11.55 3 12 3.45 12 4C12 4.55 11.55 5 11 5L7 5C6.45 5 6 4.55 6 4C6 3.45 6.45 3 7 3Z" />
		</g>
	</g>
</svg>