<svg version="1.2" baseProfile="tiny-ps" xmlns="http://www.w3.org/2000/svg" viewBox="0 0 24 32" width="24" height="32">
	<title>Contact us</title>
	<style>
		tspan { white-space:pre }
		.shp0 { fill: #008ed6 } 
	</style>
	<g id="Contact us">
		<path id="Pointer" class="shp0" d="M12.13 1.99C18.95 1.99 22.01 7.11 22.01 12.19C22.01 16.67 18.82 22.61 12.53 29.85C12.49 29.88 12.44 29.92 12.4 29.96C12.35 29.92 12.3 29.88 12.26 29.85L11.74 29.25C7.63 24.54 2.01 18.09 2.01 12.19C2.01 6.66 6.64 1.99 12.13 1.99M12.13 -0.01C5.57 -0.01 0.01 5.58 0.01 12.19C0.01 19.12 6.45 26.21 10.78 31.19C10.8 31.21 11.5 31.99 12.36 31.99C12.36 31.99 12.43 31.99 12.44 31.99C13.3 31.99 13.99 31.21 14.01 31.19C18.07 26.52 24.01 18.81 24.01 12.19C24.01 5.58 19.68 -0.01 12.13 -0.01L12.13 -0.01ZM12 8C14.21 8 16 9.79 16 12C16 14.21 14.25 16.04 12.05 16.04C9.84 16.04 8 14.21 8 12C8 9.79 9.79 8 12 8M12.05 6.04C8.73 6.04 6.05 8.73 6.05 12.04C6.05 15.36 8.73 18.04 12.05 18.04C15.36 18.04 18.05 15.36 18.05 12.04C18.05 8.73 15.36 6.04 12.05 6.04L12.05 6.04Z" />
	</g>
</svg>