<svg version="1.2" baseProfile="tiny-ps" xmlns="http://www.w3.org/2000/svg" viewBox="0 0 32 32" width="32" height="32">
	<title>Features</title>
	<style>
		tspan { white-space:pre }
		.shp0 { fill: #008ed6 } 
	</style>
	<g id="Features">
		<g id="Feature 2">
			<path id="Settings" class="shp0" d="M30.02 12.97L27.45 12.4C27.25 11.76 26.99 11.15 26.69 10.56L28.08 8.25C28.59 7.42 28.86 6.2 28.08 5.42L26.66 4C25.88 3.22 24.56 3.36 23.77 3.92L21.51 5.35C20.93 5.05 20.32 4.79 19.69 4.58L19.11 1.98C18.94 1.03 18.1 0 17 0L15 0C13.9 0 13.22 1.05 13 2L12.36 4.57C11.68 4.78 11.03 5.06 10.41 5.38L8.1 3.92C7.31 3.36 5.99 3.22 5.21 4L3.79 5.42C3.01 6.2 3.27 7.42 3.79 8.25L5.25 10.68C4.98 11.23 4.74 11.8 4.55 12.4L1.98 12.97C1.03 13.14 0 13.98 0 15.08L0 17.08C0 18.18 1.05 18.86 2 19.08L4.6 19.73C4.78 20.28 5 20.81 5.26 21.32L3.79 23.76C3.28 24.59 3.01 25.81 3.79 26.59L5.21 28C5.99 28.78 7.31 28.64 8.1 28.09L10.42 26.62C11.04 26.95 11.69 27.22 12.38 27.44L13.02 30C13.23 30.95 13.91 32 15.02 32L17.02 32C18.12 32 18.95 30.97 19.12 30.02L19.7 27.41C20.33 27.21 20.93 26.95 21.51 26.65L23.77 28.09C24.56 28.64 25.88 28.78 26.66 28L28.08 26.59C28.86 25.81 28.59 24.59 28.08 23.76L26.69 21.44C26.96 20.89 27.21 20.32 27.4 19.73L30 19.08C30.95 18.86 32 18.18 32 17.08L32 15.08C32 13.98 30.97 13.14 30.02 12.97ZM30 16.94C29.92 17 29.76 17.08 29.55 17.13L25.84 18.06L25.5 19.11C25.35 19.58 25.14 20.06 24.9 20.54L24.4 21.52L26.36 24.79C26.49 24.99 26.54 25.17 26.56 25.27L25.25 26.59C25.12 26.55 24.97 26.49 24.91 26.45L21.61 24.35L20.59 24.88C20.1 25.13 19.59 25.34 19.09 25.51L18 25.86L17.17 29.58C17.13 29.78 17.03 29.94 16.96 30L15.16 30C15.09 29.91 15.01 29.75 14.96 29.55L14.04 25.87L12.98 25.53C12.43 25.36 11.88 25.13 11.35 24.85L10.32 24.31L7.03 26.4C6.89 26.49 6.75 26.55 6.62 26.55L5.31 25.27C5.33 25.17 5.38 25 5.49 24.82L7.53 21.41L7.05 20.43C6.82 19.97 6.64 19.54 6.5 19.11L6.16 18.06L2.48 17.14C2.25 17.09 2.09 17 2 16.94L2 15.08C2 15.08 2 15.08 2 15.08C2.04 15.08 2.2 14.96 2.34 14.94L6.11 14.1L6.46 13C6.6 12.55 6.79 12.08 7.05 11.57L7.53 10.59L5.51 7.22C5.38 7.02 5.33 6.84 5.31 6.73L6.62 5.42C6.75 5.46 6.89 5.51 6.96 5.56L10.32 7.7L11.34 7.15C11.87 6.88 12.42 6.65 12.97 6.47L14.03 6.13L14.94 2.48C14.99 2.25 15.08 2.09 15.14 2L17 2C16.99 2.02 17.12 2.19 17.14 2.34L17.98 6.13L19.07 6.48C19.58 6.65 20.09 6.86 20.59 7.12L21.62 7.66L24.84 5.6C24.97 5.51 25.12 5.46 25.25 5.46L26.56 6.73C26.54 6.84 26.49 7.01 26.38 7.19L24.4 10.48L24.91 11.47C25.18 12 25.39 12.5 25.54 13L25.89 14.1L29.58 14.92C29.81 14.96 29.98 15.09 30.02 15.16L30 16.94ZM16.01 22.01C12.69 22.01 9.99 19.31 9.99 16C9.99 12.69 12.69 9.99 16.01 9.99C19.33 9.99 22.04 12.69 22.04 16C22.04 19.31 19.33 22.01 16.01 22.01ZM16 12C13.79 12 12 13.79 12 16C12 18.21 13.79 20 16 20C18.21 20 20 18.21 20 16C20 13.79 18.21 12 16 12Z" />
		</g>
	</g>
</svg>