<svg version="1.2" baseProfile="tiny-ps" xmlns="http://www.w3.org/2000/svg" viewBox="0 0 16 16" width="16" height="16">
	<title>About long</title>
	<style>
		tspan { white-space:pre }
		.shp0 { fill: #008ed6 } 
	</style>
	<g id="About long">
		<path id="Speedometer" class="shp0" d="M11.96 15.15C11.79 15.15 11.62 15.07 11.53 14.92C11.38 14.68 11.46 14.37 11.69 14.23C13.78 12.94 15.02 10.72 15.02 8.27C15.02 4.42 11.89 1.28 8.03 1.28C4.18 1.28 1.04 4.42 1.04 8.27C1.04 10.69 2.27 12.91 4.32 14.2C4.55 14.34 4.63 14.65 4.48 14.89C4.33 15.12 4.02 15.19 3.79 15.05C1.44 13.57 0.04 11.04 0.04 8.27C0.04 3.87 3.63 0.28 8.03 0.28C12.44 0.28 16.02 3.87 16.02 8.27C16.02 11.07 14.6 13.61 12.22 15.08C12.14 15.13 12.04 15.15 11.96 15.15ZM15.37 8.78L14.45 8.78C14.18 8.78 13.95 8.56 13.95 8.28C13.95 8 14.18 7.78 14.45 7.78L15.37 7.78C15.64 7.78 15.87 8 15.87 8.28C15.87 8.56 15.64 8.78 15.37 8.78ZM1.62 8.77L0.7 8.77C0.43 8.77 0.2 8.54 0.2 8.27C0.2 7.99 0.43 7.77 0.7 7.77L1.62 7.77C1.89 7.77 2.12 7.99 2.12 8.27C2.12 8.54 1.89 8.77 1.62 8.77ZM8.02 2.43C7.74 2.43 7.52 2.2 7.52 1.93L7.52 1.01C7.52 0.74 7.74 0.51 8.02 0.51C8.3 0.51 8.52 0.74 8.52 1.01L8.52 1.93C8.52 2.2 8.3 2.43 8.02 2.43ZM4.85 3.21C4.68 3.21 4.51 3.12 4.42 2.96L3.96 2.17C3.82 1.93 3.91 1.62 4.15 1.48C4.38 1.35 4.69 1.43 4.83 1.67L5.29 2.46C5.42 2.7 5.34 3 5.1 3.14C5.02 3.19 4.94 3.21 4.85 3.21ZM14.38 12.41C14.3 12.41 14.21 12.38 14.13 12.34L13.34 11.88C13.1 11.74 13.02 11.44 13.16 11.2C13.3 10.96 13.6 10.88 13.84 11.02L14.63 11.47C14.87 11.61 14.96 11.92 14.82 12.16C14.72 12.32 14.56 12.41 14.38 12.41ZM2.51 5.55C2.43 5.55 2.34 5.53 2.26 5.48L1.47 5.03C1.23 4.89 1.15 4.58 1.29 4.34C1.42 4.1 1.73 4.02 1.97 4.16L2.76 4.62C3 4.76 3.08 5.06 2.94 5.3C2.85 5.46 2.68 5.55 2.51 5.55ZM1.72 12.41C1.55 12.41 1.38 12.32 1.29 12.16C1.15 11.92 1.23 11.61 1.47 11.47L2.26 11.02C2.5 10.88 2.8 10.96 2.94 11.2C3.08 11.44 3 11.74 2.76 11.88L1.97 12.34C1.89 12.38 1.8 12.41 1.72 12.41ZM13.59 5.55C13.42 5.55 13.25 5.46 13.16 5.3C13.02 5.06 13.1 4.76 13.34 4.62L14.13 4.16C14.37 4.02 14.68 4.1 14.82 4.34C14.96 4.58 14.87 4.89 14.63 5.03L13.84 5.48C13.76 5.53 13.68 5.55 13.59 5.55ZM11.25 3.21C11.17 3.21 11.08 3.19 11 3.14C10.76 3 10.68 2.7 10.82 2.46L11.27 1.67C11.41 1.43 11.72 1.35 11.96 1.48C12.2 1.62 12.28 1.93 12.14 2.17L11.68 2.96C11.59 3.12 11.42 3.21 11.25 3.21ZM7.02 8.28C7.02 8.83 7.46 9.28 8.02 9.28C8.57 9.28 9.01 8.83 9.01 8.28C9.01 7.73 8.57 7.28 8.02 7.28C7.46 7.28 7.02 7.73 7.02 8.28ZM11.9 6.03C12.04 6.27 11.96 6.58 11.72 6.71L8.26 8.71C8.02 8.85 7.71 8.77 7.57 8.53C7.44 8.29 7.52 7.99 7.76 7.85L11.22 5.85C11.46 5.71 11.77 5.79 11.9 6.03Z" />
	</g>
</svg>